<svg
  xmlns="http://www.w3.org/2000/svg"
  xmlns:xlink="http://www.w3.org/1999/xlink"
  id="nightIcon"
  viewBox="0 0 100 100"
>
  <path
    fill="#141415"
    d="M96.76 66.458c-.853-.852-2.15-1.064-3.23-.534-6.063 2.991-12.858 4.571-19.655 4.571C62.022 70.495 50.88 65.88 42.5 57.5 29.043 44.043 25.658 23.536 34.076 6.47c.532-1.08.318-2.379-.534-3.23-.851-.852-2.15-1.064-3.23-.534-4.918 2.427-9.375 5.619-13.246 9.491-9.447 9.447-14.65 22.008-14.65 35.369.0 13.36 5.203 25.921 14.65 35.368s22.008 14.65 35.368 14.65c13.361.0 25.921-5.203 35.369-14.65 3.872-3.871 7.064-8.328 9.491-13.246C97.826 68.608 97.611 67.309 96.76 66.458z"
  ></path>
</svg>