<svg
  xmlns="http://www.w3.org/2000/svg"
  xmlns:xlink="http://www.w3.org/1999/xlink"
  id="dayIcon"
  viewBox="0 0 35 35"
>
  <path
    fill="#e1e3e6"
    d="M6 17.5C6 16.672 5.328 16 4.5 16h-3C.672 16 0 16.672.0 17.5S.672 19 1.5 19h3C5.328 19 6 18.328 6 17.5zM7.5 26c-.414.0-.789.168-1.061.439l-2 2C4.168 28.711 4 29.086 4 29.5 4 30.328 4.671 31 5.5 31c.414.0.789-.168 1.06-.44l2-2C8.832 28.289 9 27.914 9 27.5 9 26.672 8.329 26 7.5 26zm10-20C18.329 6 19 5.328 19 4.5v-3C19 .672 18.329.0 17.5.0S16 .672 16 1.5v3C16 5.328 16.671 6 17.5 6zm10 3c.414.0.789-.168 1.06-.439l2-2C30.832 6.289 31 5.914 31 5.5 31 4.672 30.329 4 29.5 4c-.414.0-.789.168-1.061.44l-2 2C26.168 6.711 26 7.086 26 7.5 26 8.328 26.671 9 27.5 9zM6.439 8.561C6.711 8.832 7.086 9 7.5 9 8.328 9 9 8.328 9 7.5c0-.414-.168-.789-.439-1.061l-2-2C6.289 4.168 5.914 4 5.5 4 4.672 4 4 4.672 4 5.5c0 .414.168.789.439 1.06l2 2.001zM33.5 16h-3c-.828.0-1.5.672-1.5 1.5s.672 1.5 1.5 1.5h3c.828.0 1.5-.672 1.5-1.5S34.328 16 33.5 16zM28.561 26.439C28.289 26.168 27.914 26 27.5 26c-.828.0-1.5.672-1.5 1.5.0.414.168.789.439 1.06l2 2C28.711 30.832 29.086 31 29.5 31c.828.0 1.5-.672 1.5-1.5.0-.414-.168-.789-.439-1.061l-2-2zM17.5 29c-.829.0-1.5.672-1.5 1.5v3c0 .828.671 1.5 1.5 1.5s1.5-.672 1.5-1.5v-3C19 29.672 18.329 29 17.5 29zm0-22C11.71 7 7 11.71 7 17.5S11.71 28 17.5 28 28 23.29 28 17.5 23.29 7 17.5 7zm0 18c-4.136.0-7.5-3.364-7.5-7.5s3.364-7.5 7.5-7.5 7.5 3.364 7.5 7.5S21.636 25 17.5 25z"
  ></path>
</svg>